<svg id="Capa_1" enable-background="new 0 0 64 64" height="512" viewBox="0 0 64 64" width="512" xmlns="http://www.w3.org/2000/svg"><path d="m32 3.26v57.48c-1.17.825-2.568 1.266-4 1.26-3.157.001-5.923-2.113-6.75-5.16-.408.109-.828.163-1.25.16-2.761 0-5-2.239-5-5-.002-.333.031-.665.1-.99-4.447 2.221-9.852.417-12.073-4.03-2.092-4.186-.625-9.277 3.373-11.71-2.912-2.535-3.217-6.951-.681-9.863.643-.738 1.434-1.333 2.321-1.747-.683-1.098-1.044-2.367-1.04-3.66-.006-2.704 1.554-5.168 4-6.32.935-.451 1.961-.684 3-.68.376-.002.751.031 1.12.1-.602-2.701 1.099-5.378 3.8-5.98.355-.079.717-.119 1.08-.12.422-.003.842.051 1.25.16.827-3.047 3.593-5.161 6.75-5.16 1.432-.006 2.83.435 4 1.26z" fill="#57a4ff"/><circle cx="55" cy="25" fill="#57a4ff" r="3"/><circle cx="47" cy="52" fill="#57a4ff" r="3"/><g fill="#004fac"><path d="m20 19c-1.657 0-3-1.343-3-3 0-.552-.448-1-1-1s-1 .448-1 1c.003 2.76 2.24 4.997 5 5 .552 0 1-.448 1-1s-.448-1-1-1z"/><path d="m10 35c-.552 0-1 .448-1 1s.448 1 1 1c1.657 0 3 1.343 3 3 0 .552.448 1 1 1s1-.448 1-1c-.003-2.76-2.24-4.997-5-5z"/><path d="m20 45c-2.209 0-4 1.791-4 4 0 .552.448 1 1 1s1-.448 1-1c0-1.105.895-2 2-2 .552 0 1-.448 1-1s-.448-1-1-1z"/><path d="m23 27c0 .552.448 1 1 1 1.221 0 2 .592 2 1 0 .552.448 1 1 1s1-.448 1-1c0-1.683-1.757-3-4-3-.552 0-1 .448-1 1z"/><path d="m27 37c-1.105 0-2-.895-2-2 0-.552-.448-1-1-1s-1 .448-1 1c0 2.209 1.791 4 4 4 .552 0 1-.448 1-1s-.448-1-1-1z"/><path d="m26 50c-2.206 0-4 2.243-4 5 0 .552.448 1 1 1s1-.448 1-1c0-1.626.916-3 2-3 .552 0 1-.448 1-1s-.448-1-1-1z"/><path d="m23 21h1c.552 0 1-.448 1-1s-.448-1-1-1h-1c-.552 0-1 .448-1 1s.448 1 1 1z"/><path d="m20 26h-1c-.552 0-1 .448-1 1s.448 1 1 1h1c.552 0 1-.448 1-1s-.448-1-1-1z"/><path d="m28 10c0 .552.448 1 1 1s1-.448 1-1v-4c0-.552-.448-1-1-1s-1 .448-1 1z"/><path d="m29 40c-.552 0-1 .448-1 1v4c0 .552.448 1 1 1s1-.448 1-1v-4c0-.552-.448-1-1-1z"/><path d="m13 29c.552 0 1-.448 1-1s-.448-1-1-1c-1.105 0-2-.895-2-2 0-.552-.448-1-1-1s-1 .448-1 1c0 2.209 1.791 4 4 4z"/><path d="m55 21c-1.829.006-3.421 1.253-3.866 3.027-.044-.012-.089-.021-.134-.027h-3c-.216 0-.427.07-.6.2l-6.4 4.8v-7.586l2.908-2.908c1.397 1.695 3.903 1.936 5.598.539s1.936-3.903.539-5.598-3.903-1.936-5.598-.539c-.922.76-1.454 1.896-1.447 3.092.006.178.024.356.054.532l-3.761 3.761c-.188.187-.293.442-.293.707v7.586l-2 2v-23.586c0-.552-.448-1-1-1s-1 .448-1 1v25.586l-.414.414h-1.586v-29.74c0-.325-.157-.629-.422-.817-1.339-.946-2.939-1.45-4.578-1.443-3.27.001-6.21 1.991-7.425 5.026-.188-.017-.375-.026-.575-.026-3.312.003-5.997 2.688-6 6-1.186-.005-2.358.26-3.427.775-3.927 1.86-5.648 6.518-3.873 10.484-3.723 2.37-4.819 7.31-2.448 11.033.183.287.384.563.602.824-4.357 3.389-5.141 9.669-1.752 14.026 2.571 3.305 6.93 4.657 10.921 3.387.278 3.095 2.87 5.467 5.977 5.471.2 0 .387-.009.575-.026 1.215 3.035 4.155 5.025 7.425 5.026 1.639.007 3.239-.498 4.578-1.443.265-.188.422-.492.422-.817v-25.74h2v21c0 .552.448 1 1 1s1-.448 1-1v-22.586l2-2v15.586c0 .265.105.52.293.707l3.761 3.761c-.03.176-.048.354-.054.532-.028 2.237 1.763 4.072 4 4.1s4.072-1.763 4.1-4-1.763-4.072-4-4.1c-1.236-.015-2.411.535-3.192 1.494l-2.908-2.908v-10.172l3.293 3.293c.187.188.442.293.707.293h2c.045-.006.09-.015.134-.027.537 2.143 2.71 3.444 4.853 2.907s3.444-2.71 2.907-4.853-2.71-3.444-4.853-2.907c-1.431.359-2.548 1.476-2.907 2.907-.044-.012-.089-.021-.134-.027h-1.586l-4.414-4.414v-2.086l7.333-5.5h2.667c.045-.006.09-.015.134-.027.541 2.139 2.713 3.434 4.851 2.893 2.139-.541 3.434-2.713 2.893-4.851-.449-1.775-2.047-3.018-3.878-3.015zm-8-7c1.105 0 2 .895 2 2s-.895 2-2 2-2-.895-2-2 .895-2 2-2zm-16 46.2c-.911.53-1.947.806-3 .8-2.704.001-5.074-1.81-5.784-4.42-.146-.533-.695-.847-1.228-.701-.001 0-.003.001-.004.001-.321.084-.652.124-.984.12-2.209 0-4-1.791-4-4-.003-.261.023-.522.077-.777.116-.54-.228-1.072-.768-1.187-.225-.048-.46-.017-.665.087-3.947 1.986-8.756.398-10.743-3.549-1.879-3.733-.568-8.283 3.009-10.444.475-.282.632-.895.35-1.37-.054-.092-.123-.174-.203-.244-2.496-2.172-2.759-5.956-.587-8.452.55-.632 1.227-1.142 1.987-1.497.501-.233.718-.827.486-1.328-.017-.037-.036-.072-.058-.107-1.733-2.814-.857-6.5 1.957-8.233.19-.117.387-.224.589-.319.801-.386 1.68-.585 2.569-.58.312-.002.624.025.931.082.542.104 1.067-.251 1.171-.793.026-.135.024-.273-.006-.407-.482-2.162.88-4.304 3.042-4.786.283-.063.572-.095.862-.096.332-.003.663.039.984.124.532.148 1.083-.164 1.231-.696 0-.001.001-.003.001-.004.708-2.611 3.078-4.424 5.784-4.424 1.053-.006 2.089.27 3 .8zm16-10.2c1.105 0 2 .895 2 2s-.895 2-2 2-2-.895-2-2 .895-2 2-2zm4-13c1.105 0 2 .895 2 2s-.895 2-2 2-2-.895-2-2 .895-2 2-2zm4-10c-1.105 0-2-.895-2-2s.895-2 2-2 2 .895 2 2-.895 2-2 2z"/><path d="m53 17h2c.552 0 1-.448 1-1s-.448-1-1-1h-2c-.552 0-1 .448-1 1s.448 1 1 1z"/><path d="m54 51h-1c-.552 0-1 .448-1 1s.448 1 1 1h1c.552 0 1-.448 1-1s-.448-1-1-1z"/><path d="m40 13c.552 0 1-.448 1-1v-6c0-.552-.448-1-1-1s-1 .448-1 1v6c0 .552.448 1 1 1z"/><path d="m40 52c-.552 0-1 .448-1 1v4c0 .552.448 1 1 1s1-.448 1-1v-4c0-.552-.448-1-1-1z"/></g></svg>